<?xml version="1.0" standalone="no"?>
<!DOCTYPE svg PUBLIC "-//W3C//DTD SVG 20010904//EN"
 "http://www.w3.org/TR/2001/REC-SVG-20010904/DTD/svg10.dtd">
<svg version="1.0" xmlns="http://www.w3.org/2000/svg"
 width="512.000000pt" height="512.000000pt" viewBox="0 0 512.000000 512.000000"
 preserveAspectRatio="xMidYMid meet">
<metadata>
Created by potrace 1.14, written by Peter Selinger 2001-2017
</metadata>
<g transform="translate(0.000000,512.000000) scale(0.100000,-0.100000)"
fill="#000000" stroke="none">
<path d="M1490 4434 c-558 -322 -1024 -593 -1034 -602 -10 -10 -27 -35 -37
-57 -18 -38 -19 -96 -19 -1205 0 -788 4 -1177 11 -1203 5 -21 22 -51 37 -67
15 -16 167 -110 337 -208 171 -98 472 -272 670 -386 910 -526 1039 -599 1071
-606 19 -4 49 -4 68 0 47 10 2045 1164 2078 1200 15 16 32 46 37 67 7 26 11
415 11 1203 0 1109 -1 1167 -19 1205 -28 62 83 -7 -1046 645 -1126 650 -1034
600 -1095 600 -54 0 -65 -6 -1070 -586z m1220 120 c83 -48 150 -90 150 -93 0
-7 -1585 -924 -1605 -929 -8 -2 -82 36 -165 84 l-151 87 53 31 c231 134 1564
905 1566 905 1 1 70 -38 152 -85z m644 -373 c66 -39 129 -76 138 -83 15 -11
-61 -58 -620 -380 -350 -202 -714 -412 -808 -466 l-170 -99 -143 83 -143 83
53 30 c30 17 392 226 804 465 413 239 754 435 759 435 5 1 63 -30 130 -68z
m672 -387 c82 -48 150 -88 152 -89 1 -1 -362 -212 -808 -469 l-810 -468 -154
89 c-85 48 -153 89 -152 90 5 6 1612 932 1617 933 4 0 74 -39 155 -86z m-3065
-517 l109 -62 0 -938 0 -939 -33 20 c-17 11 -86 51 -152 89 l-120 69 -3 938
-2 938 47 -26 c25 -15 95 -54 154 -89z m3392 -1758 c-9 -9 -1603 -929 -1609
-929 -2 0 -4 420 -4 933 l0 934 808 466 807 466 3 -931 c1 -513 -1 -935 -5
-939z m-2775 1401 l132 -75 0 -937 0 -936 -140 81 -140 81 0 934 c0 513 4 932
8 930 5 -1 68 -37 140 -78z m653 -376 l149 -86 0 -934 c0 -514 -2 -934 -5
-934 -3 0 -73 39 -155 86 l-150 86 0 934 c0 514 3 934 6 934 4 0 73 -39 155
-86z"/>
</g>
</svg>
